<svg width="47" height="62" viewBox="0 0 47 62" fill="none" xmlns="http://www.w3.org/2000/svg">
<mask id="mask0_110_1275" style="mask-type:luminance" maskUnits="userSpaceOnUse" x="0" y="0" width="47" height="62">
<path d="M46.2205 0H0V61.5555H46.2205V0Z" fill="white"/>
</mask>
<g mask="url(#mask0_110_1275)">
<path d="M38.3372 1.99432L24.1937 26.3254V45.7902H17.2607V26.3254L3.11719 1.99432H10.0503L23.7084 25.5143L31.4735 12.1011C32.2592 10.8117 32.7907 9.54319 33.0681 8.29544C33.3916 7.0477 33.5534 5.61279 33.5534 3.99072L33.484 1.99432H38.3372Z" fill="black"/>
<path d="M22.1158 58.9612C16.1995 58.9612 9.86734 57.9006 3.11915 55.7794L3.67379 51.4123C11.4388 55.7378 18.0021 57.9006 23.3637 57.9006C27.2462 57.9006 30.4123 57.1103 32.862 55.5299C35.3117 53.9494 36.5366 51.8698 36.5366 49.2911C36.5366 48.9168 36.4441 48.2721 36.2592 47.3571C35.8433 45.6935 34.8033 44.1962 33.1394 42.8652C31.4754 41.4927 29.5573 40.3073 27.3849 39.3092C25.2125 38.2694 22.3931 37.084 18.9266 35.7531C15.3676 34.3806 12.525 33.1952 10.3989 32.197C8.31895 31.1988 6.53946 30.055 5.06041 28.7657C3.58135 27.4348 2.7725 25.9375 2.63383 24.2738C2.44895 21.9031 3.2347 19.9067 4.99108 18.2846C6.74746 16.621 9.15092 15.394 12.2015 14.6038C15.2982 13.7719 18.7417 13.356 22.5318 13.356C28.1707 13.356 33.9713 14.1671 39.9338 15.7891L39.3098 20.1562C36.0281 18.3678 32.7696 16.9537 29.5342 15.9139C26.2987 14.8741 23.4793 14.3542 21.0758 14.3542C16.9622 14.3542 13.7036 14.9781 11.3002 16.2259C8.89671 17.432 7.78742 19.1373 7.9723 21.3416C8.06474 22.5894 8.75805 23.7539 10.0522 24.8353C11.3926 25.9167 13.0334 26.9149 14.9747 27.8299C16.916 28.7033 19.5274 29.8055 22.8091 31.1364C26.9689 32.8417 30.3199 34.339 32.862 35.6283C35.4504 36.8761 37.669 38.3733 39.5178 40.1202C41.4128 41.867 42.4528 43.8218 42.6377 45.9846C42.8688 48.7296 42.1061 51.0796 40.3498 53.0344C38.6396 54.9892 36.1899 56.4657 33.0007 57.4639C29.8115 58.4621 26.1832 58.9612 22.1158 58.9612Z" fill="black"/>
</g>
</svg>
