<svg width="47" height="62" viewBox="0 0 47 62" fill="none" xmlns="http://www.w3.org/2000/svg">
<mask id="mask0_100_677" style="mask-type:luminance" maskUnits="userSpaceOnUse" x="0" y="0" width="47" height="62">
<path d="M46.2205 0.344398H0V61.8999H46.2205V0.344398Z" fill="white"/>
</mask>
<g mask="url(#mask0_100_677)">
<path d="M38.3372 2.33873L24.1937 26.6698V46.1346H17.2607V26.6698L3.11719 2.33873H10.0503L23.7084 25.8588L31.4735 12.4455C32.2592 11.1561 32.7907 9.8876 33.0681 8.63985C33.3916 7.3921 33.5534 5.9572 33.5534 4.33513L33.484 2.33873H38.3372Z" fill="white"/>
<path d="M22.1158 59.3056C16.1995 59.3056 9.86734 58.245 3.11915 56.1238L3.67379 51.7567C11.4388 56.0822 18.0021 58.245 23.3637 58.245C27.2462 58.245 30.4123 57.4547 32.862 55.8743C35.3117 54.2938 36.5366 52.2142 36.5366 49.6355C36.5366 49.2612 36.4441 48.6165 36.2592 47.7015C35.8433 46.0379 34.8033 44.5406 33.1394 43.2096C31.4754 41.8371 29.5573 40.6518 27.3849 39.6536C25.2125 38.6138 22.3931 37.4284 18.9266 36.0975C15.3676 34.725 12.525 33.5396 10.3989 32.5414C8.31895 31.5432 6.53946 30.3994 5.06041 29.1101C3.58135 27.7792 2.7725 26.2819 2.63383 24.6182C2.44895 22.2475 3.2347 20.2511 4.99108 18.629C6.74746 16.9654 9.15092 15.7384 12.2015 14.9482C15.2982 14.1164 18.7417 13.7004 22.5318 13.7004C28.1707 13.7004 33.9713 14.5115 39.9338 16.1335L39.3098 20.5007C36.0281 18.7122 32.7696 17.2981 29.5342 16.2583C26.2987 15.2185 23.4793 14.6986 21.0758 14.6986C16.9622 14.6986 13.7036 15.3225 11.3002 16.5703C8.89671 17.7764 7.78742 19.4817 7.9723 21.686C8.06474 22.9338 8.75805 24.0983 10.0522 25.1797C11.3926 26.2611 13.0334 27.2593 14.9747 28.1743C16.916 29.0477 19.5274 30.1499 22.8091 31.4808C26.9689 33.1861 30.3199 34.6834 32.862 35.9727C35.4504 37.2205 37.669 38.7178 39.5178 40.4646C41.4128 42.2114 42.4528 44.1662 42.6377 46.329C42.8688 49.074 42.1061 51.424 40.3498 53.3788C38.6396 55.3336 36.1899 56.8101 33.0007 57.8083C29.8115 58.8065 26.1832 59.3056 22.1158 59.3056Z" fill="white"/>
</g>
</svg>
