<svg width="82" height="44" viewBox="0 0 82 44" fill="none" xmlns="http://www.w3.org/2000/svg">
<path d="M26.769 0.96L22.689 8.76V15H20.689V8.76L16.609 0.96H18.609L22.549 8.5L24.789 4.2C25.0157 3.78667 25.169 3.38 25.249 2.98C25.3423 2.58 25.389 2.12 25.389 1.6L25.369 0.96H26.769ZM30.3295 15.3C29.1695 15.3 28.2495 14.98 27.5695 14.34C26.8895 13.6867 26.5495 12.8333 26.5495 11.78C26.5495 10.1933 27.2761 8.93333 28.7295 8C30.1961 7.06667 32.1361 6.32 34.5495 5.76C34.5495 4.96 34.3561 4.35333 33.9695 3.94C33.5828 3.52667 33.0561 3.32 32.3895 3.32C31.6695 3.32 30.9161 3.54 30.1295 3.98C29.3428 4.40667 28.6361 4.98 28.0095 5.7L27.6095 4.16C28.3295 3.82667 29.1028 3.56667 29.9295 3.38C30.7561 3.18 31.5561 3.08 32.3295 3.08C33.5961 3.08 34.6161 3.36667 35.3895 3.94C36.1628 4.5 36.5495 5.4 36.5495 6.64V15H34.5495V13.22C33.9628 13.86 33.2961 14.3667 32.5495 14.74C31.8028 15.1133 31.0628 15.3 30.3295 15.3ZM31.1095 14.66C31.6828 14.66 32.2828 14.5 32.9095 14.18C33.5495 13.8467 34.0961 13.4333 34.5495 12.94V6.04C32.4028 6.50667 30.8628 7.19333 29.9295 8.1C29.0095 9.00667 28.5495 10.1333 28.5495 11.48C28.5495 12.5067 28.7895 13.2933 29.2695 13.84C29.7495 14.3867 30.3628 14.66 31.1095 14.66ZM46.7337 3.1C47.4803 3.1 48.107 3.34667 48.6137 3.84C49.1337 4.33333 49.3937 5.06 49.3937 6.02V15H47.3937V5.96C47.3937 5.22667 47.2537 4.68 46.9737 4.32C46.6937 3.94667 46.3137 3.76 45.8337 3.76C45.3537 3.76 44.8203 3.92667 44.2337 4.26C43.6603 4.59333 43.087 5.06667 42.5137 5.68C41.9537 6.29333 41.4603 7.00667 41.0337 7.82V15H39.0337V3.44H41.0337V7.32C41.8337 5.93333 42.747 4.88667 43.7737 4.18C44.8003 3.46 45.787 3.1 46.7337 3.1ZM55.1927 15.3C54.0327 15.3 53.1127 14.98 52.4327 14.34C51.7527 13.6867 51.4127 12.8333 51.4127 11.78C51.4127 10.1933 52.1394 8.93333 53.5927 8C55.0594 7.06667 56.9994 6.32 59.4127 5.76C59.4127 4.96 59.2194 4.35333 58.8327 3.94C58.4461 3.52667 57.9194 3.32 57.2527 3.32C56.5327 3.32 55.7794 3.54 54.9927 3.98C54.2061 4.40667 53.4994 4.98 52.8727 5.7L52.4727 4.16C53.1927 3.82667 53.9661 3.56667 54.7927 3.38C55.6194 3.18 56.4194 3.08 57.1927 3.08C58.4594 3.08 59.4794 3.36667 60.2527 3.94C61.0261 4.5 61.4127 5.4 61.4127 6.64V15H59.4127V13.22C58.8261 13.86 58.1594 14.3667 57.4127 14.74C56.6661 15.1133 55.9261 15.3 55.1927 15.3ZM55.9727 14.66C56.5461 14.66 57.1461 14.5 57.7727 14.18C58.4127 13.8467 58.9594 13.4333 59.4127 12.94V6.04C57.2661 6.50667 55.7261 7.19333 54.7927 8.1C53.8727 9.00667 53.4127 10.1333 53.4127 11.48C53.4127 12.5067 53.6527 13.2933 54.1327 13.84C54.6127 14.3867 55.2261 14.66 55.9727 14.66ZM6.6593 40.26C4.95263 40.26 3.12596 39.92 1.1793 39.24L1.3393 37.84C3.5793 39.2267 5.47263 39.92 7.0193 39.92C8.1393 39.92 9.05263 39.6667 9.7593 39.16C10.466 38.6533 10.8193 37.9867 10.8193 37.16C10.8193 37.04 10.7926 36.8333 10.7393 36.54C10.6193 36.0067 10.3193 35.5267 9.8393 35.1C9.3593 34.66 8.80596 34.28 8.1793 33.96C7.55263 33.6267 6.7393 33.2467 5.7393 32.82C4.71263 32.38 3.89263 32 3.2793 31.68C2.6793 31.36 2.16596 30.9933 1.7393 30.58C1.31263 30.1533 1.0793 29.6733 1.0393 29.14C0.985964 28.38 1.21263 27.74 1.7193 27.22C2.22596 26.6867 2.9193 26.2933 3.7993 26.04C4.69263 25.7733 5.68596 25.64 6.7793 25.64C8.40596 25.64 10.0793 25.9 11.7993 26.42L11.6193 27.82C10.6726 27.2467 9.73263 26.7933 8.7993 26.46C7.86596 26.1267 7.05263 25.96 6.3593 25.96C5.17263 25.96 4.23263 26.16 3.5393 26.56C2.84596 26.9467 2.52596 27.4933 2.5793 28.2C2.60596 28.6 2.80596 28.9733 3.1793 29.32C3.56596 29.6667 4.0393 29.9867 4.5993 30.28C5.1593 30.56 5.91263 30.9133 6.8593 31.34C8.0593 31.8867 9.02596 32.3667 9.7593 32.78C10.506 33.18 11.146 33.66 11.6793 34.22C12.226 34.78 12.526 35.4067 12.5793 36.1C12.646 36.98 12.426 37.7333 11.9193 38.36C11.426 38.9867 10.7193 39.46 9.7993 39.78C8.8793 40.1 7.83263 40.26 6.6593 40.26ZM14.6977 43.38V28.44H16.6977V29.94C17.1777 29.3533 17.7377 28.9067 18.3777 28.6C19.0311 28.2933 19.6911 28.14 20.3577 28.14C21.1711 28.14 21.9244 28.3533 22.6177 28.78C23.3111 29.2067 23.8711 29.8533 24.2977 30.72C24.7244 31.5867 24.9377 32.6333 24.9377 33.86C24.9377 35.1 24.6844 36.2133 24.1777 37.2C23.6711 38.1733 22.9911 38.9333 22.1377 39.48C21.2844 40.0267 20.3577 40.3 19.3577 40.3C18.4377 40.3 17.5511 40.0467 16.6977 39.54V43.38H14.6977ZM18.9577 39.94C19.7577 39.94 20.4711 39.68 21.0977 39.16C21.7244 38.6267 22.2044 37.9067 22.5377 37C22.8844 36.0933 23.0577 35.0867 23.0577 33.98C23.0577 32.8867 22.9044 31.94 22.5977 31.14C22.3044 30.34 21.8977 29.7267 21.3777 29.3C20.8711 28.8733 20.3044 28.66 19.6777 28.66C19.1577 28.66 18.6311 28.8 18.0977 29.08C17.5777 29.36 17.1111 29.7533 16.6977 30.26V39.26C17.4711 39.7133 18.2244 39.94 18.9577 39.94ZM30.0951 40.3C28.9351 40.3 28.0151 39.98 27.3351 39.34C26.6551 38.6867 26.3151 37.8333 26.3151 36.78C26.3151 35.1933 27.0417 33.9333 28.4951 33C29.9617 32.0667 31.9017 31.32 34.3151 30.76C34.3151 29.96 34.1217 29.3533 33.7351 28.94C33.3484 28.5267 32.8217 28.32 32.1551 28.32C31.4351 28.32 30.6817 28.54 29.8951 28.98C29.1084 29.4067 28.4017 29.98 27.7751 30.7L27.3751 29.16C28.0951 28.8267 28.8684 28.5667 29.6951 28.38C30.5217 28.18 31.3217 28.08 32.0951 28.08C33.3617 28.08 34.3817 28.3667 35.1551 28.94C35.9284 29.5 36.3151 30.4 36.3151 31.64V40H34.3151V38.22C33.7284 38.86 33.0617 39.3667 32.3151 39.74C31.5684 40.1133 30.8284 40.3 30.0951 40.3ZM30.8751 39.66C31.4484 39.66 32.0484 39.5 32.6751 39.18C33.3151 38.8467 33.8617 38.4333 34.3151 37.94V31.04C32.1684 31.5067 30.6284 32.1933 29.6951 33.1C28.7751 34.0067 28.3151 35.1333 28.3151 36.48C28.3151 37.5067 28.5551 38.2933 29.0351 38.84C29.5151 39.3867 30.1284 39.66 30.8751 39.66ZM42.5115 40.32C41.7915 40.32 41.0648 40.2533 40.3315 40.12C39.5982 39.9867 38.9182 39.8067 38.2915 39.58L38.6315 38.18C39.4582 38.78 40.2715 39.2067 41.0715 39.46C41.8848 39.7133 42.6448 39.84 43.3515 39.84C44.2182 39.84 44.9382 39.6733 45.5115 39.34C46.0982 38.9933 46.4115 38.54 46.4515 37.98C46.4515 37.54 46.2648 37.1267 45.8915 36.74C45.5182 36.34 45.0582 35.98 44.5115 35.66C43.9782 35.34 43.2448 34.94 42.3115 34.46C41.4048 34.0067 40.6648 33.6133 40.0915 33.28C39.5315 32.9467 39.0582 32.58 38.6715 32.18C38.2848 31.7667 38.0915 31.3333 38.0915 30.88C38.0915 29.9467 38.6048 29.2533 39.6315 28.8C40.6715 28.3333 41.9582 28.1 43.4915 28.1C44.8382 28.1 46.1248 28.26 47.3515 28.58L47.1315 29.98C46.4248 29.54 45.6182 29.1867 44.7115 28.92C43.8182 28.64 43.0048 28.5 42.2715 28.5C41.4448 28.5 40.7715 28.64 40.2515 28.92C39.7448 29.2 39.4915 29.6067 39.4915 30.14C39.4915 30.5267 39.7515 30.9 40.2715 31.26C40.7915 31.6067 41.6115 32.0533 42.7315 32.6C43.7715 33.1067 44.6248 33.56 45.2915 33.96C45.9582 34.3467 46.5248 34.8067 46.9915 35.34C47.4715 35.8733 47.7115 36.46 47.7115 37.1C47.6715 38.1933 47.1515 39.0067 46.1515 39.54C45.1515 40.06 43.9382 40.32 42.5115 40.32ZM54.2546 40.34C53.0946 40.34 52.0946 40.0933 51.2546 39.6C50.4146 39.0933 49.7679 38.38 49.3146 37.46C48.8746 36.54 48.6546 35.4733 48.6546 34.26C48.6546 33.0333 48.8746 31.9533 49.3146 31.02C49.7679 30.0867 50.4146 29.3667 51.2546 28.86C52.0946 28.3533 53.0946 28.1 54.2546 28.1C55.3746 28.1 56.3546 28.36 57.1946 28.88C58.0346 29.3867 58.6813 30.1067 59.1346 31.04C59.5879 31.96 59.8146 33.0333 59.8146 34.26C59.8146 35.4733 59.5879 36.54 59.1346 37.46C58.6813 38.38 58.0346 39.0933 57.1946 39.6C56.3546 40.0933 55.3746 40.34 54.2546 40.34ZM54.2546 40.06C55.0013 40.06 55.6479 39.7933 56.1946 39.26C56.7546 38.7267 57.1813 38.02 57.4746 37.14C57.7679 36.2467 57.9146 35.2867 57.9146 34.26C57.9146 33.26 57.7679 32.3133 57.4746 31.42C57.1813 30.5133 56.7546 29.78 56.1946 29.22C55.6479 28.66 55.0013 28.38 54.2546 28.38C53.4546 28.38 52.7746 28.66 52.2146 29.22C51.6679 29.7667 51.2546 30.4933 50.9746 31.4C50.7079 32.2933 50.5746 33.2467 50.5746 34.26C50.5746 35.3 50.7079 36.26 50.9746 37.14C51.2546 38.02 51.6679 38.7267 52.2146 39.26C52.7746 39.7933 53.4546 40.06 54.2546 40.06ZM70.9324 28.44L66.4924 40H64.7524L60.3124 28.44H62.3124L66.5124 39.26L68.5924 33.8C68.9391 32.8667 69.1858 32 69.3324 31.2C69.4791 30.3867 69.5458 29.4667 69.5324 28.44H70.9324ZM75.2318 40.3C74.0718 40.3 73.1518 39.98 72.4718 39.34C71.7918 38.6867 71.4518 37.8333 71.4518 36.78C71.4518 35.1933 72.1785 33.9333 73.6318 33C75.0985 32.0667 77.0385 31.32 79.4518 30.76C79.4518 29.96 79.2585 29.3533 78.8718 28.94C78.4851 28.5267 77.9585 28.32 77.2918 28.32C76.5718 28.32 75.8185 28.54 75.0318 28.98C74.2451 29.4067 73.5385 29.98 72.9118 30.7L72.5118 29.16C73.2318 28.8267 74.0051 28.5667 74.8318 28.38C75.6585 28.18 76.4585 28.08 77.2318 28.08C78.4985 28.08 79.5185 28.3667 80.2918 28.94C81.0651 29.5 81.4518 30.4 81.4518 31.64V40H79.4518V38.22C78.8651 38.86 78.1985 39.3667 77.4518 39.74C76.7051 40.1133 75.9651 40.3 75.2318 40.3ZM76.0118 39.66C76.5851 39.66 77.1851 39.5 77.8118 39.18C78.4518 38.8467 78.9985 38.4333 79.4518 37.94V31.04C77.3051 31.5067 75.7651 32.1933 74.8318 33.1C73.9118 34.0067 73.4518 35.1333 73.4518 36.48C73.4518 37.5067 73.6918 38.2933 74.1718 38.84C74.6518 39.3867 75.2651 39.66 76.0118 39.66Z" fill="white"/>
</svg>
